HIERARCHY
ROOT root
{
	OFFSET	0	13.1	24.9
	CHANNELS 6  Xposition Yposition Zposition Xrotation Yrotation Zrotation
	JOINT spine_1
	{
		OFFSET	0	9.99999	0
		CHANNELS 3  Xrotation Yrotation Zrotation
		JOINT spine_2
		{
			OFFSET	0	112	-10
			CHANNELS 3  Xrotation Yrotation Zrotation
			JOINT spine_3
			{
				OFFSET	0	206.5	19.3
				CHANNELS 3  Xrotation Yrotation Zrotation
				JOINT spine_4
				{
					OFFSET	0	110.4	14.6
					CHANNELS 3  Xrotation Yrotation Zrotation
					JOINT neck_1
					{
						OFFSET	0	71.8	-50.3
						CHANNELS 3  Xrotation Yrotation Zrotation
						JOINT neck_2
						{
							OFFSET	0	86.2	-25.8
							CHANNELS 3  Xrotation Yrotation Zrotation
							JOINT head_ee
							{
								OFFSET	0	179.8	-8.7
								CHANNELS 3  Xrotation Yrotation Zrotation
								End Site
								{
									OFFSET	1	0	0
								}
							}
						}
					}
					JOINT left_clavicle
					{
						OFFSET	-43.2	22.4	-70.8
						CHANNELS 3  Xrotation Yrotation Zrotation
						JOINT left_shoulder
						{
							OFFSET	-93.9	-5.79999	48.7
							CHANNELS 3  Xrotation Yrotation Zrotation
							JOINT left_elbow
							{
								OFFSET	-291.4	-30.8	15.2
								CHANNELS 3  Xrotation Yrotation Zrotation
								JOINT left_lowarm_twist
								{
									OFFSET	-110.7	-3.89999	13.6
									CHANNELS 3  Xrotation Yrotation Zrotation
									JOINT left_hand
									{
										OFFSET	-110.7	-3.89999	13.6
										CHANNELS 3  Xrotation Yrotation Zrotation
										JOINT left_ee
										{
											OFFSET	-80.8	-5.10001	12.1
											CHANNELS 3  Xrotation Yrotation Zrotation
											End Site
											{
												OFFSET	1	0	0
											}
										}
									}
								}
							}
						}
					}
					JOINT right_clavicle
					{
						OFFSET	43.2	22.4	-70.8
						CHANNELS 3  Xrotation Yrotation Zrotation
						JOINT right_shoulder
						{
							OFFSET	93.9	-5.79999	48.7
							CHANNELS 3  Xrotation Yrotation Zrotation
							JOINT right_elbow
							{
								OFFSET	291.4	-30.8	15.2
								CHANNELS 3  Xrotation Yrotation Zrotation
								JOINT right_lowarm_twist
								{
									OFFSET	110.7	-3.89999	13.6
									CHANNELS 3  Xrotation Yrotation Zrotation
									JOINT right_hand
									{
										OFFSET	110.7	-3.89999	13.6
										CHANNELS 3  Xrotation Yrotation Zrotation
										JOINT right_ee
										{
											OFFSET	80.8	-5.10001	12.1
											CHANNELS 3  Xrotation Yrotation Zrotation
											End Site
											{
												OFFSET	1	0	0
											}
										}
									}
								}
							}
						}
					}
				}
			}
		}
	}
	JOINT left_hip
	{
		OFFSET	-82.8	-127.5	0.300001
		CHANNELS 3  Xrotation Yrotation Zrotation
		JOINT left_knee
		{
			OFFSET	-28.2	-396.7	2.2
			CHANNELS 3  Xrotation Yrotation Zrotation
			JOINT left_ankle
			{
				OFFSET	-11.7	-411.3	35.4
				CHANNELS 3  Xrotation Yrotation Zrotation
				JOINT left_toes
				{
					OFFSET	0	-60	-88.6
					CHANNELS 3  Xrotation Yrotation Zrotation
					JOINT left_foot_ee
					{
						OFFSET	-22.5	-16.5	-42.2
						CHANNELS 3  Xrotation Yrotation Zrotation
						End Site
						{
							OFFSET	1	0	0
						}
					}
				}
			}
		}
	}
	JOINT right_hip
	{
		OFFSET	82.8	-127.5	0.300001
		CHANNELS 3  Xrotation Yrotation Zrotation
		JOINT right_knee
		{
			OFFSET	28.2	-396.7	2.2
			CHANNELS 3  Xrotation Yrotation Zrotation
			JOINT right_ankle
			{
				OFFSET	11.7	-411.3	35.4
				CHANNELS 3  Xrotation Yrotation Zrotation
				JOINT right_toes
				{
					OFFSET	0	-60	-88.6
					CHANNELS 3  Xrotation Yrotation Zrotation
					JOINT right_foot_ee
					{
						OFFSET	22.5	-16.5	-42.2
						CHANNELS 3  Xrotation Yrotation Zrotation
						End Site
						{
							OFFSET	1	0	0
						}
					}
				}
			}
		}
	}
}
MOTION
Frames: 5
Frame Time: 0.02
1601.5 654.488 -989.153 177.565 -57.7465 168.532 -1.42512 0.379015 2.93061 -1.42036 0.191848 2.94877 -1.40628 -0.504159 2.91171 -1.4181 -0.0381905 2.95475 4.86715 1.93114 -3.04872 4.95388 5.97462 -3.38387 -0.0 0.0 -0.0 3.56191 -22.4109 5.10187 12.6696 7.42335 58.4484 3.74272 -61.6428 2.23351 50.5373 -1.00755 -6.1702 -0.245079 20.1206 6.65129 -0.0 0.0 -0.0 9.87668 -0.0868049 -19.3965 -5.03963 -36.7381 -57.9965 0.428245 11.9774 -0.044925 45.1214 0.642094 5.58133 -0.0708473 8.30161 4.00602 0.0 0.0 0.0 -11.2365 -6.63185 13.8033 -15.2034 0.321923 2.3041 41.0795 14.3474 -5.01846 -18.5767 0.0 0.0 -0.0 0.0 -0.0 27.7707 8.508 8.14057 -1.67795 -0.0654437 -0.249182 -12.752 -9.33794 -1.90752 2.97386 -0.0 -0.0 0.0 0.0 0.0 
1631.78 651.82 -972.473 175.245 -58.2148 166.636 -1.72373 0.361465 2.76813 -1.71948 0.184659 2.7855 -1.70641 -0.487284 2.74879 -1.71695 -0.0472251 2.79121 5.04433 0.334173 -2.18304 5.07035 2.48239 -2.4801 -0.0 0.0 -0.0 3.55575 -23.4835 4.98222 10.6297 9.12374 59.8788 3.62118 -60.8462 2.12696 51.8627 -1.10536 -6.3089 -0.33318 21.5106 6.67244 -0.0 0.0 -0.0 9.61904 -1.83894 -18.7821 -5.80738 -34.8949 -58.6421 0.471019 13.134 -0.0542241 45.6475 0.675126 5.64 -0.418086 5.63221 5.21386 0.0 0.0 0.0 -13.9545 -3.35997 12.8533 -17.7891 0.315403 2.70074 39.6699 11.3883 -4.859 -16.3185 0.0 0.0 -0.0 0.0 -0.0 27.3532 8.66276 8.44238 -7.59862 -0.237469 -1.14113 -8.75746 -9.34629 -1.30341 6.95909 -0.0 -0.0 0.0 0.0 0.0 
1657.29 652.747 -957.177 173.01 -58.8924 164.564 -2.1334 0.189854 2.61757 -2.12959 0.0229649 2.62434 -2.12479 -0.624469 2.54912 -2.13379 -0.214191 2.61569 5.43902 -0.84488 -0.696014 5.44045 -0.831564 -0.838545 -0.0 0.0 -0.0 4.34901 -21.031 6.9357 9.39128 5.1965 59.4623 3.25622 -58.1901 1.81236 50.0598 -0.973094 -6.11968 -0.60585 22.4969 5.46819 -0.0 0.0 -0.0 9.66737 -2.36047 -18.8507 -4.72526 -37.8343 -57.7001 0.481433 13.414 -0.0566152 43.56 0.547267 5.40548 -0.399364 6.50482 5.46195 0.0 0.0 0.0 -14.1631 -2.15982 12.9656 -21.3455 0.277222 3.24499 38.4028 16.0664 -4.80285 -15.0837 0.0 0.0 -0.0 0.0 -0.0 24.6791 10.4801 8.84535 -9.19864 -0.268054 -1.38474 -5.24363 -9.66389 -0.776004 8.85392 -0.0 -0.0 0.0 0.0 0.0 
1680.92 655.479 -937.714 171.441 -58.5989 163.184 -2.21614 0.351287 2.49797 -2.21269 0.191675 2.51524 -2.20044 -0.437176 2.48439 -2.20905 -0.039457 2.52222 5.58005 -1.19024 -0.0377272 5.58483 -1.99745 -0.0964245 -0.0 0.0 -0.0 4.60034 -19.7522 7.5951 6.70866 4.99207 60.5847 3.04395 -56.4367 1.63368 50.4651 -1.00231 -6.16257 -0.417079 21.8169 6.29953 -0.0 0.0 -0.0 9.63432 -2.96075 -18.7488 -5.39495 -33.2086 -59.491 0.503571 14.007 -0.0618624 45.5765 0.670636 5.6321 -0.863344 3.80119 7.43932 0.0 0.0 0.0 -14.1331 0.729493 12.1116 -24.5532 0.213874 3.73308 36.8332 16.6317 -4.66231 -12.8562 0.0 0.0 -0.0 0.0 -0.0 22.6093 12.0254 8.27198 -12.0642 -0.305783 -1.82277 1.24253 -10.6386 0.181427 10.5888 -0.0 -0.0 0.0 0.0 0.0 
1703.89 658.814 -921.73 171.049 -59.2749 162.861 -2.02958 0.423279 2.46894 -2.02623 0.265367 2.49085 -2.01098 -0.35146 2.48017 -2.01956 0.0445199 2.50454 6.2834 -2.28266 -0.195949 6.3001 -3.69729 -0.313522 -0.0 0.0 -0.0 4.48482 -20.4598 7.28182 3.96076 4.37857 62.185 2.57996 -51.9499 1.2571 49.356 -0.92309 -6.0447 -0.174954 18.0065 6.24513 -0.0 0.0 -0.0 10.1238 -0.913421 -19.8618 -1.8015 -34.3646 -57.9838 0.488729 13.6097 -0.0583198 46.4379 0.725762 5.72757 -0.873378 0.966878 6.26654 0.0 0.0 0.0 -12.7623 0.549733 11.5959 -27.7149 0.124785 4.21006 34.1353 19.3991 -4.43961 -11.9258 0.0 0.0 -0.0 0.0 -0.0 20.7705 11.5957 8.40229 -12.9515 -0.313018 -1.95872 3.44716 -10.8672 0.50055 13.2118 -0.0 -0.0 0.0 0.0 0.0 
